# xmcd
#
# Track frame offsets:
# 150
# 16508
# 21803
# 42748
# 59860
# 74358
# 96895
# 107298
# 120243
# 133590
# 145593
# 176400
# 182715
#
# Disc length: 2629 seconds
#
# Revision: 0
# Processed by: cddbd v1.5.2PL0 Copyright (c) Steve Scherf et al.
# Submitted via: Axialis_AX_CDPlayer 2.6
#
DISCID=aa0a430d
DTITLE=Various Artist - Living Country Blues USA Volume 10 - Country Boogie
DYEAR=1900
DGENRE=
TTITLE0=Spoonful - Lottie Murrell
TTITLE1=That's The Boogie - Napoleon Strickland
TTITLE2=Lovin' Blues - Guitar Slim
TTITLE3=Mama Don't 'Low No Guitar Playin' 'Round Here - James "Son" Thomas
TTITLE4=Bouncin' Ball - Othar Turner and The Rising Star Fife And Drum Band
TTITLE5=One String Boogie - Lonnie Pitchford
TTITLE6=Burn Your Bridges - "Bowling Green" John Cephas and "Harmonica" Phil W
TTITLE6=iggins
TTITLE7=Pinetop's Boogie Woogie - Memphis Piano Red
TTITLE8=Sellin' That Stuff - Archie Edwards
TTITLE9=Shake Your Moneymaker - Lonnie Pitchford
TTITLE10=Shotgun Boogie - Cora Fluker
TTITLE11=Swing, Swing - Arzo Youngblood
TTITLE12=You Got To Do The Boogie Woogie - CeDell "Big G" Davis
EXTD=
EXTT0=
EXTT1=
EXTT2=
EXTT3=
EXTT4=
EXTT5=
EXTT6=
EXTT7=
EXTT8=
EXTT9=
EXTT10=
EXTT11=
EXTT12=
PLAYORDER=
